<svg xmlns="http://www.w3.org/2000/svg" viewBox="0 0 64 64">
	<rect fill="#eceff1" width="64" height="64" x="0" y="0" rx="8" ry="8"/>
	<path fill="#009688" d="M 8 38.26 Q 8 36.003 9.558 34.418 11.116 32.833 13.319 32.833 H 13.355 Q 13.337 32.224 13.328 31.901 13.319 31.579 13.319 31.543 V 31.49 31.364 Q 13.319 28.857 14.519 26.609 15.719 24.361 17.806 23 19.893 21.639 22.31 21.639 23.349 21.639 24.155 21.836 25.319 18.039 28.481 15.63 31.642 13.221 35.618 13.221 38.878 13.221 41.654 14.878 44.43 16.534 46.042 19.373 47.654 22.212 47.654 25.561 V 25.615 Q 49.91 25.687 51.845 27.012 53.779 28.337 54.89 30.46 56 32.582 56 34.946 56 37.615 54.567 39.907 53.134 42.2 50.77 43.579 H 42.478 L 43.642 42.2 43.678 42.164 43.713 42.11 Q 44.251 41.412 44.34 40.57 44.43 39.728 44.054 38.958 43.696 38.188 42.979 37.749 42.263 37.31 41.403 37.31 H 38.985 V 28.158 Q 38.985 26.69 37.982 25.731 36.979 24.773 35.439 24.773 H 30.066 Q 28.525 24.773 27.531 25.731 26.537 26.69 26.537 28.14 V 37.31 H 24.066 Q 23.224 37.31 22.507 37.749 21.791 38.188 21.415 38.94 21.039 39.71 21.128 40.552 21.218 41.394 21.755 42.093 L 21.791 42.128 21.827 42.182 23.009 43.579 H 12.37 Q 10.454 43.579 9.227 41.976 8 40.373 8 38.26 z M 23.824 40.14 Q 23.887 39.997 24.066 39.997 H 29.134 V 28.14 Q 29.134 27.46 29.869 27.46 H 35.6 Q 36.299 27.46 36.299 28.158 V 39.997 H 41.403 Q 41.6 39.997 41.654 40.149 41.707 40.301 41.582 40.463 L 33.003 50.618 Q 32.86 50.779 32.681 50.779 32.519 50.779 32.412 50.618 L 23.887 40.445 Q 23.761 40.284 23.824 40.14 z"/>
</svg>
