<svg xmlns="http://www.w3.org/2000/svg" viewBox="0 0 64 64">
	<rect fill="#eceff1" width="64" height="64" x="0" y="0" rx="8" ry="8"/>
	<path fill="#9c27b0" d="M 16.888 21.66 C 16.888 21.894 16.963 22.085 17.112 22.234 17.239 22.404 17.431 22.489 17.686 22.489 L 26.271 22.489 C 26.761 22.489 27.027 22.245 27.069 21.755 27.176 20.181 27.676 18.989 28.569 18.181 29.463 17.372 30.718 16.968 32.335 16.968 33.484 16.968 34.42 17.309 35.144 17.989 35.867 18.67 36.229 19.543 36.229 20.606 36.229 21.202 36.09 21.782 35.814 22.346 35.537 22.91 35.176 23.404 34.729 23.83 34.282 24.255 33.952 24.553 33.739 24.723 33.527 24.894 33.314 25.053 33.101 25.202 29.335 27.947 27.452 31.011 27.452 34.394 L 27.452 37.649 C 27.452 37.755 27.559 37.915 27.771 38.128 27.984 38.34 28.144 38.447 28.25 38.447 L 36.42 38.447 C 36.633 38.447 36.819 38.372 36.979 38.223 37.138 38.074 37.218 37.894 37.218 37.681 37.261 35.681 37.569 34.138 38.144 33.053 38.718 31.968 39.782 30.926 41.335 29.926 42.378 29.266 43.165 28.745 43.697 28.362 44.229 27.979 44.761 27.521 45.293 26.989 45.824 26.457 46.197 25.904 46.41 25.33 46.622 24.755 46.793 24.069 46.92 23.271 47.048 22.473 47.112 21.5 47.112 20.351 47.112 18.309 46.681 16.479 45.819 14.862 44.957 13.245 43.809 11.947 42.372 10.968 40.936 9.989 39.362 9.25 37.649 8.75 35.936 8.25 34.165 8 32.335 8 27.654 8 23.968 9.191 21.277 11.574 18.585 13.957 17.122 17.319 16.888 21.66 z M 25.856 54.404 C 25.856 54.851 26.011 55.229 26.319 55.537 26.628 55.846 27.005 56 27.452 56 L 37.186 56 C 37.612 56 37.984 55.846 38.303 55.537 38.622 55.229 38.782 54.851 38.782 54.404 L 38.782 44.83 C 38.782 44.383 38.622 44.005 38.303 43.697 37.984 43.388 37.612 43.234 37.186 43.234 L 27.452 43.234 C 27.005 43.234 26.628 43.388 26.319 43.697 26.011 44.005 25.856 44.383 25.856 44.83 z"/>
</svg>
