<svg xmlns="http://www.w3.org/2000/svg" viewBox="0 0 64 64">
	<rect fill="#eceff1" width="64" height="64" x="0" y="0" rx="8" ry="8"/>
	<path fill="#009688" d="M 8 39.11 Q 8 36.872 9.558 35.287 11.116 33.701 13.319 33.701 H 13.355 Q 13.337 33.093 13.328 32.77 13.319 32.448 13.319 32.412 V 32.358 32.233 Q 13.319 29.725 14.519 27.478 15.719 25.23 17.806 23.86 19.893 22.49 22.31 22.49 23.224 22.49 24.155 22.687 25.319 18.907 28.481 16.499 31.642 14.09 35.618 14.09 37.57 14.09 39.415 14.707 41.26 15.325 42.737 16.472 44.215 17.618 45.325 19.131 46.436 20.645 47.045 22.534 47.654 24.424 47.654 26.43 V 26.484 Q 49.91 26.555 51.845 27.881 53.779 29.206 54.89 31.328 56 33.451 56 35.815 56 38.484 54.567 40.776 53.134 43.069 50.77 44.448 H 38.09 V 40.167 H 41.403 Q 42.316 40.167 43.069 39.701 43.821 39.236 44.215 38.43 44.609 37.624 44.519 36.719 44.43 35.815 43.857 35.081 L 43.821 35.045 43.785 34.991 35.206 24.872 Q 34.257 23.672 32.681 23.672 31.176 23.672 30.191 24.872 L 21.684 35.027 21.648 35.063 21.612 35.116 Q 21.039 35.851 20.949 36.746 20.86 37.642 21.254 38.448 21.648 39.236 22.409 39.701 23.17 40.167 24.066 40.167 H 27.343 V 44.448 H 12.37 Q 10.454 44.448 9.227 42.836 8 41.224 8 39.11 z M 23.878 37.194 Q 23.815 37.051 23.94 36.89 L 32.412 26.681 Q 32.519 26.537 32.681 26.537 32.896 26.537 33.003 26.699 L 41.582 36.836 Q 41.725 36.997 41.663 37.149 41.6 37.301 41.403 37.301 H 36.299 V 49.158 Q 36.299 49.534 36.137 49.687 35.976 49.839 35.6 49.839 L 29.869 49.91 Q 29.134 49.91 29.134 49.23 V 37.337 H 24.119 Q 23.94 37.337 23.878 37.194 z"/>
</svg>
