<svg xmlns="http://www.w3.org/2000/svg" viewBox="0 0 64 64">
	<path fill="#efebe9" d="M60.616,14.867c-3.156,0.337-3.223-0.419-5.639,0.498c-2.416,0.917-3.294,2.191-4.076,2.769c-0.782,0.577-2.343,1.53-2.343,1.53s-3.284,1.937-7.755,4.594c-6.291-0.102-38.026-0.596-38.973-0.237C0.781,24.419,0,26.398,0,26.398l20.98,4.293l5.004,2.453c-1.853,1.126-3.569,2.178-5.025,3.083c-0.763,0.475-1.478,0.928-2.149,1.361c-1.925-1.063-6.396-3.474-7.614-3.604c-1.565-0.167-2.434,0.924-2.434,0.924l2.845,4.91l-0.012-0.007c0,0-8.268-0.888-9.396-0.459c-1.129,0.429-1.106,1.2-1.106,1.2l9.143,3.785c-0.345,0.495-0.441,0.858-0.346,1.107c0.14,0.37,1.089,0.421,2.68,0.163l4.674,2.949c0,0,1.29-0.52,1.441-0.953c0.117-0.336-0.244-2.481-0.412-3.424c1.9-0.584,4.063-1.326,6.424-2.223c3.447-1.309,6.764-2.725,10.255-4.419l4.705,2.307l3.541,9.33c0,0,2.096-0.796,2.752-1.721c0.567-0.801,1.166-13.263,1.316-16.596c1.633-0.964,3.342-1.997,5.145-3.108c11.488-7.087,11.964-10.426,11.465-11.739C63.875,16.013,63.703,14.557,60.616,14.867z"/>
</svg>
