<svg xmlns="http://www.w3.org/2000/svg" viewBox="0 0 64 64">
	<circle fill="#ffc107" cx="32" cy="32" r="32"/>
	<circle fill="#ffe082" cx="32" cy="32" r="26"/>
	<path fill="#eceff1" d="M32.208,20.585c-7.894,0-12.791,0.887-15.477,2.429c-2.685,1.542-3.349,2.378-3.349,4.51c0,1.948,1.226,4.245,2.977,6c1.751,1.75,4.036,2.8,5.057,2.8c0.563,0,1.113-0.233,1.838-0.853c0.727-0.617,1.509-1.566,2.322-2.606c0.81-1.037,1.665-2.154,2.669-3.108c1.005-0.953,2.305-1.861,3.962-1.861c1.656,0,2.955,0.908,3.961,1.861c1.006,0.954,1.859,2.071,2.67,3.108c0.812,1.04,1.596,1.989,2.321,2.606c0.726,0.618,1.274,0.853,1.839,0.853c1.021,0,3.304-1.05,5.059-2.8c1.75-1.754,2.975-4.051,2.975-6c0-2.132-0.662-2.968-3.35-4.51C44.997,21.472,40.1,20.585,32.208,20.585z"/>
	<g fill="#37474f">
		<path d="M32.208,31.727c-0.255,0-0.675,0.163-1.336,0.787c-0.66,0.627-1.442,1.629-2.275,2.695c-0.836,1.064-1.718,2.213-2.847,3.175c-1.13,0.96-2.601,1.771-4.334,1.771c-2.807,0-5.503-1.631-7.77-3.896c-0.892-0.891-1.695-1.911-2.365-3.021c0,0.027,0,0.058,0,0.088c0,3.281,0.416,6.633,1.271,10.047c0.854,3.35,2.144,6.412,3.852,9.17c1.708,2.759,3.809,5.014,6.305,6.786c2.495,1.774,5.406,2.672,8.755,2.672c3.61,0,6.742-0.897,9.369-2.672c0.483-0.327,0.946-0.666,1.399-1.028c-5.09-0.684-8.131-2.357-9.893-4.246c-0.887-0.947-1.396-1.962-1.707-2.845H27c-0.778,0-1.402-0.625-1.402-1.401v-2.016c0-0.773,0.625-1.398,1.402-1.398h10.023c0.775,0,1.401,0.625,1.401,1.398v2.016c0,0.776-0.626,1.401-1.401,1.401h-2.518c0.117,0.151,0.241,0.296,0.395,0.459c1.31,1.399,4.189,3.112,10.574,3.414c0.67-0.824,1.289-1.707,1.859-2.649c1.705-2.82,2.977-5.996,3.83-9.541c0.781-3.022,1.296-6.024,1.557-8.998c-0.584,0.853-1.242,1.655-1.951,2.364c-2.268,2.265-4.965,3.896-7.771,3.896c-1.731,0-3.203-0.811-4.334-1.771c-1.131-0.962-2.011-2.11-2.847-3.175c-0.832-1.066-1.617-2.066-2.274-2.695C32.883,31.89,32.463,31.727,32.208,31.727z"/>
		<path d="M33.148,2c-3.809,0-7.092,0.985-9.851,2.956c-2.759,1.904-5.035,4.4-6.808,7.486c-1.236,2.104-2.231,4.397-3.021,6.851c0.42-0.342,0.864-0.658,1.357-0.941c3.647-2.093,9.125-3.306,17.381-3.306c8.255,0,13.732,1.212,17.382,3.306c0.769,0.442,1.44,0.956,2.033,1.532c-0.667-2.622-1.61-5.061-2.823-7.333c-1.576-3.021-3.678-5.516-6.305-7.486C39.934,3.029,36.826,2,33.148,2z"/>
	</g>
</svg>
