<svg xmlns="http://www.w3.org/2000/svg" viewBox="0 0 920 267.66333">
	<path fill="#8bc34a" d="M 226.46104,126.64979 C 199.58816,126.64979 182.91269,129.67315 173.76729,134.92279 164.62186,140.1724 162.36398,143.01752 162.36398,150.27627 162.36398,156.91467 166.53764,164.73528 172.50026,170.69789 178.46289,176.66053 186.24274,180.23792 189.71702,180.23792 191.63509,180.23792 193.50554,179.43381 195.97767,177.33119 198.44982,175.22859 201.11457,171.99657 203.878,168.46195 206.64142,164.92734 209.54936,161.12299 212.97084,157.87848 216.39237,154.63396 220.8153,151.5433 226.46104,151.5433 232.10678,151.5433 236.5297,154.63396 239.95123,157.87848 243.37272,161.12299 246.28066,164.92734 249.04407,168.46195 251.80751,171.99657 254.47225,175.22859 256.94441,177.33119 259.41654,179.43381 261.28698,180.23792 263.20505,180.23792 266.67934,180.23792 274.45918,176.66053 280.42182,170.69789 286.38443,164.73528 290.5581,156.91467 290.5581,150.27627 290.5581,143.01752 288.30021,140.1724 279.15479,134.92279 270.00938,129.67315 253.33391,126.64979 226.46104,126.64979 z"/>
	<path fill="#0277bd" d="M 349.14797,23.81282 C 349.14789,26.94336 348.25352,29.7383 346.46483,32.1976 344.89963,34.65738 342.77547,36.8933 340.0924,38.90543 337.4092,40.6944 334.50247,42.14778 331.37222,43.26554 328.24185,44.16013 325.33513,44.60732 322.65204,44.6071 318.18011,44.60732 314.26722,43.48935 310.91332,41.25319 307.55938,39.01746 305.88244,35.55176 305.88246,30.85604 305.88244,27.50236 306.66501,24.59563 308.23019,22.13585 310.01892,19.45296 312.14306,17.32883 314.60264,15.76343 317.06213,13.97491 319.85708,12.63334 322.98742,11.73873 326.1177,10.84459 329.13623,10.3974 332.04301,10.39716 336.29123,10.3974 340.20414,11.40359 343.7817,13.41567 347.35914,15.42826 349.14789,18.89399 349.14797,23.81282"/>
	<g fill="#01579b">
		<path d="M 149.24928,35.88692 C 149.24911,37.00511 148.13114,40.24722 145.89536,45.61327 143.88284,50.97975 141.08792,57.57577 137.51056,65.40138 133.9329,73.22735 129.79642,82.05935 125.10108,91.89731 120.62905,101.51203 115.93359,111.46197 111.01463,121.74717 106.09544,131.80904 101.28817,141.75898 96.59278,151.59701 91.8972,161.43526 87.53713,170.37904 83.51252,178.42834 79.71132,186.25422 76.46921,192.96205 73.78615,198.55184 71.10295,203.91815 69.426,207.27207 68.75529,208.61359 75.68662,206.37769 82.72986,204.58894 89.88495,203.24732 97.26347,201.68223 104.64209,200.89964 112.0208,200.89959 115.59819,200.89964 119.39929,201.23504 123.42411,201.90575 127.44869,202.35301 131.13799,203.47096 134.49205,205.25967 138.06941,206.82488 140.97614,209.06082 143.21223,211.9675 145.6716,214.65068 146.90138,218.33998 146.90152,223.03544 146.90138,227.95454 145.22441,232.42643 141.87066,236.4511 138.5166,240.25221 134.1565,243.60612 128.79038,246.51285 123.64759,249.41958 117.72235,251.87912 111.01463,253.89147 104.30668,255.90381 97.59885,257.58076 90.89114,258.92233 84.18321,260.26389 77.81078,261.15827 71.7738,261.60546 65.73668,262.27624 60.70582,262.61165 56.68119,262.61165 51.53845,262.61165 45.8368,262.38805 39.57621,261.94086 33.53911,261.49367 27.72566,260.26389 22.13585,258.25154 16.54596,256.23919 11.85048,253.33247 8.0494,249.53136 4.47186,245.50669 2.68313,239.91683 2.68313,232.76178 2.68313,227.84273 4.02468,221.24671 6.70783,212.97369 9.61454,204.47715 12.96845,195.86878 16.76958,187.14852 20.57066,178.20484 24.48355,169.70826 28.50827,161.65876 32.75654,153.38589 36.11046,146.90165 38.57002,142.20605 46.17218,128.11974 53.77439,114.14511 61.37668,100.28211 69.20241,86.19583 76.80459,71.9976 84.1833,57.68736 76.35741,62.15944 67.41365,66.29595 57.35198,70.09687 47.29016,73.67454 37.78741,75.4633 28.84368,75.46313 25.71333,75.4633 22.35942,75.01611 18.78193,74.12157 15.42799,73.22735 12.29767,71.9976 9.39096,70.43225 6.70781,68.64368 4.47186,66.40774 2.68313,63.72441 0.89438,61.04147 0,57.91117 0,54.33345 0,48.52021 1.90054,43.15394 5.70165,38.23465 9.50275,33.31581 14.42183,28.84393 20.45888,24.81899 26.7195,20.79453 33.65092,17.21702 41.25316,14.08646 49.07891,10.9564 56.90472,8.3850501 64.73059,6.3724601 72.5563,4.3603501 79.93492,2.7951901 86.86644,1.6769801 94.02136,0.55925008 100.05839,2.7007812e-4 104.97758,1.0078125e-5 117.94594,2.7007812e-4 128.56666,2.5715901 136.83977,7.7140301 145.11262,12.85694 149.24911,22.2479 149.24928,35.88692"/>
		<path d="M 476.45682,267.30713 C 472.6556,267.30711 469.63709,265.51835 467.40124,261.94086 465.1652,258.58695 463.48825,254.67403 462.37038,250.20215 461.25231,245.73028 460.46972,241.25839 460.02262,236.78648 459.79893,232.09102 459.68715,228.51351 459.68724,226.05395 459.68715,219.34617 460.02253,212.63833 460.69341,205.93045 461.58769,199.22269 462.48207,192.51486 463.37654,185.80696 464.49442,179.09922 465.38879,172.39139 466.05967,165.68346 466.95395,158.97572 467.40114,152.26792 467.40124,145.55997 467.40114,142.87695 467.28936,139.97022 467.06586,136.83978 466.84217,133.70958 466.28317,130.80288 465.38889,128.1196 464.71801,125.21302 463.48825,122.86526 461.69959,121.07639 459.91074,119.28778 457.56299,118.3934 454.65636,118.39326 452.64394,118.3934 450.40799,120.07035 447.94853,123.42412 445.48892,126.55458 443.14119,130.24388 440.90531,134.49205 438.89289,138.51687 437.10414,142.65336 435.53905,146.90153 434.19741,150.92635 433.52663,153.94486 433.5267,155.95712 433.52663,160.87629 433.52663,165.90715 433.5267,171.04973 433.75022,175.9689 433.86201,180.99976 433.86208,186.14236 L 433.86208,205.59507 C 433.63841,209.61982 433.30303,213.75631 432.85592,218.00455 432.40865,222.25289 431.73787,226.38938 430.84357,230.41405 430.17271,234.43878 429.16655,238.35167 427.82503,242.15275 426.48342,245.73028 424.69466,248.97239 422.45876,251.87912 420.44637,254.56225 417.98683,256.79819 415.08015,258.58695 412.17337,260.3757 408.70767,261.27008 404.68302,261.27008 400.21108,261.27008 396.52179,259.8167 393.61509,256.90998 390.70833,254.00325 388.36061,250.31395 386.57187,245.84207 384.78309,241.14658 383.44153,236.00394 382.54717,230.41405 381.87637,224.60062 381.31739,219.01076 380.8702,213.64447 380.64661,208.05466 380.5348,203.02377 380.53482,198.55184 380.7584,193.85643 380.8702,190.16713 380.8702,187.48393 L 380.8702,171.72051 C 380.8702,163.22402 380.64661,154.83924 380.19942,146.56615 379.97583,138.29328 379.86402,130.02029 379.86404,121.74717 379.86402,117.27543 379.86402,111.57376 379.86404,104.64219 380.08761,97.71093 380.98199,91.0031 382.54717,84.51869 384.11231,77.81105 386.68364,72.10938 390.26117,67.41373 393.83866,62.71844 399.09311,60.37069 406.02459,60.3705 409.15486,60.37069 411.94978,61.37688 414.40936,63.38903 416.86886,65.40157 418.99301,67.86111 420.78182,70.76765 422.7941,73.67454 424.35926,76.80487 425.4773,80.15861 426.81879,83.5127 427.82498,86.41942 428.49581,88.8788 430.73171,85.74864 433.30303,82.73013 436.20983,79.82321 439.34008,76.91667 442.80578,74.34533 446.60696,72.10922 450.40799,69.87346 454.65629,68.08471 459.35184,66.74295 464.04723,65.40157 469.41349,64.73079 475.45064,64.7306 486.85383,64.73079 495.6858,67.52571 501.94659,73.11538 508.43068,78.48184 513.12616,85.30145 516.03303,93.57428 519.16319,101.62382 521.06375,110.344 521.73468,119.73482 522.40532,129.12591 522.7407,137.62249 522.74086,145.22459 522.7407,149.02579 522.40532,154.72745 521.73468,162.32955 521.06375,169.70826 519.94578,177.98125 518.38076,187.14852 517.03905,196.09237 515.13851,205.37153 512.67912,214.98604 510.21944,224.37703 507.31271,232.9854 503.95894,240.81118 500.60488,248.63701 496.58018,255.00944 491.88484,259.92851 487.41283,264.84757 482.27016,267.30711 476.45682,267.30713"/>
		<path d="M 690.43667,77.47548 C 690.4365,83.73629 688.75953,90.10872 685.40578,96.59279 682.27532,103.0772 678.3624,109.56141 673.66709,116.0455 669.19506,122.30629 664.38779,128.34334 659.24524,134.15665 654.32604,139.74663 649.96596,144.8893 646.16498,149.58466 649.29518,154.50386 653.20807,161.09988 657.90367,169.37278 662.59903,177.42225 667.0709,186.03062 671.31933,195.19792 675.56748,204.36534 679.14499,213.30912 682.05186,222.02925 685.18204,230.74946 686.7472,238.01629 686.74735,243.82972 686.7472,248.5252 685.29383,252.88528 682.38727,256.90998 679.48037,260.71108 675.4557,262.61165 670.31317,262.61165 666.51192,262.61165 662.59903,261.04649 658.57445,257.91616 654.77323,254.56225 650.86034,250.31395 646.83576,245.17128 643.03453,239.80502 639.34524,233.87978 635.76782,227.39552 632.19022,220.91133 628.8363,214.5389 625.70608,208.27821 622.79925,202.01761 620.11612,196.20416 617.65668,190.83784 615.42066,185.24805 613.63191,180.77617 612.29041,177.42218 609.38361,180.32898 606.25329,182.78852 602.89945,184.80079 599.76905,186.58962 596.63873,188.71376 593.50848,191.17322 593.50841,195.86878 593.28482,202.4648 592.8377,210.96134 592.61406,219.45795 591.60787,227.84273 589.81919,236.1157 588.25395,244.38871 585.57082,251.65552 581.76979,257.91616 577.96863,263.95319 572.37877,266.97173 565.00021,266.97173 559.1867,266.97173 554.71484,264.28859 551.58454,258.92233 548.4542,253.77966 546.10644,247.74263 544.54131,240.81118 543.19974,233.65618 542.41715,226.50119 542.19358,219.34612 541.96996,211.96755 541.85817,206.37769 541.85817,202.57654 541.85817,186.03062 542.30536,169.48466 543.19974,152.93858 544.09412,136.39271 544.65309,119.84675 544.87671,103.30062 544.87669,99.49969 544.87669,94.58061 544.87671,88.54339 545.10028,82.28294 545.54747,75.57511 546.21828,68.4199 546.88904,61.26507 547.8952,53.99826 549.23679,46.61945 550.57833,39.24105 552.4789,32.64503 554.93846,26.83134 557.39795,20.79453 560.52827,15.98726 564.32942,12.40951 568.35408,8.6086401 573.16134,6.7081001 578.75125,6.7078401 582.7759,6.7081001 586.12982,8.2732601 588.813,11.40332 591.71968,14.31029 593.9556,18.11139 595.52083,22.80664 597.30951,27.50236 598.5393,32.75682 599.21015,38.57006 600.10446,44.38372 600.66343,50.19716 600.8871,56.01042 601.33421,61.60047 601.55781,66.85493 601.55788,71.77381 601.55781,76.69308 601.55781,80.60597 601.55788,83.51253 601.55781,85.52505 601.44602,88.54356 601.2225,92.56809 601.22243,96.36936 601.11062,100.39406 600.8871,104.64219 600.88703,108.89063 600.88703,112.80354 600.8871,116.38091 600.88703,119.95854 601.11062,122.52988 601.55788,124.0949 603.12297,124.09505 605.4707,122.64167 608.60112,119.73482 611.73134,116.60464 615.30885,112.69173 619.33365,107.99611 623.58185,103.30079 628.05373,98.38171 632.74931,93.23887 637.66827,87.87278 642.58735,82.84191 647.50654,78.14626 652.64907,73.45095 657.67996,69.64987 662.59915,66.74295 667.51809,63.61282 672.10178,62.04766 676.35022,62.04747 680.82194,62.04766 684.28767,63.61282 686.74735,66.74295 689.20672,69.87346 690.4365,73.45095 690.43667,77.47548"/>
		<path d="M 817.20932,73.45078 C 817.20922,79.93519 814.97332,84.74245 810.50152,87.87261 806.25312,91.0031 801.44582,94.02163 796.07972,96.92819 790.71332,99.61147 785.79422,102.8536 781.32246,106.65454 777.0741,110.45579 774.94994,116.15746 774.95001,123.75952 774.94994,127.78434 775.84431,131.25007 777.63314,134.15665 779.64542,137.0635 781.99317,139.74663 784.67642,142.20605 787.58302,144.44211 790.71332,146.78984 794.06732,149.24928 797.42112,151.70892 800.43972,154.50386 803.12292,157.63406 806.02952,160.76448 808.37722,164.56558 810.16612,169.03738 812.17832,173.50936 813.18452,178.98741 813.18462,185.47158 813.18452,194.86259 810.72502,204.14175 805.80602,213.30907 801.11042,222.25289 794.96162,230.30227 787.35952,237.45726 779.98082,244.38871 771.59602,249.97857 762.20513,254.22684 752.81412,258.47514 743.53496,260.5993 734.36764,260.5993 730.56651,260.5993 726.7654,260.26389 722.96432,259.59311 719.16319,259.14592 715.69749,258.13976 712.56717,256.5746 709.66044,255.00944 707.2009,252.88528 705.18856,250.20215 703.17621,247.29544 702.17004,243.60612 702.17004,239.13423 702.17004,232.87362 703.3998,228.06632 705.85934,224.71238 708.31888,221.13492 711.4492,218.33998 715.2503,216.32761 719.05141,214.3153 723.07608,212.75014 727.3244,211.63212 731.79627,210.5142 735.93275,209.17263 739.7339,207.60742 743.53496,205.81872 746.66528,203.58277 749.12487,200.89959 751.58436,198.21651 752.81412,194.4154 752.81416,189.49628 752.81412,184.80087 750.91357,179.99357 747.11252,175.07443 743.53496,169.93185 739.51026,164.56558 735.03842,158.97563 730.56651,153.16229 726.43,147.01344 722.62892,140.5291 719.05141,134.04498 717.26265,126.88996 717.26265,119.06404 717.26265,109.44962 719.16319,100.61766 722.96432,92.56809 726.989,84.29527 732.24345,77.14027 738.72772,71.10303 745.43552,65.06617 753.03771,60.37069 761.53434,57.01658 770.03088,53.43929 778.97464,51.65053 788.36572,51.65032 791.94312,51.65053 795.40882,51.98591 798.76282,52.6565 802.34022,53.32748 805.47052,54.55726 808.15382,56.3458 810.83682,57.91117 812.96092,60.14709 814.52622,63.05363 816.31492,65.73695 817.20922,69.20268 817.20932,73.45078"/>
		<path d="M 902.93762,126.01123 C 902.01162,129.46696 900.52252,134.16056 898.47032,140.09203 896.47572,145.80772 894.12062,152.00537 891.40492,158.68504 888.74692,165.14886 885.59922,171.71288 881.96182,178.37702 878.59802,184.8832 875.05512,190.76257 871.33292,196.01517 867.66842,201.05187 863.83252,205.0009 859.82512,207.86226 855.87552,210.50771 851.95692,211.3096 848.06942,210.2679 843.31792,208.99478 839.82202,205.62749 837.58172,200.16604 835.61522,194.54658 834.39902,187.85492 833.93302,180.0911 833.74082,172.1693 834.18312,163.60727 835.26002,154.40495 836.33682,145.20283 837.67972,136.3034 839.28882,127.70661 840.95562,118.89413 842.63602,110.89527 844.32972,103.71008 846.29732,96.36705 847.80192,90.75167 848.84362,86.86399 849.88532,82.97657 851.18742,78.11712 852.74992,72.28561 854.37022,66.23847 856.29342,59.92507 858.51942,53.34539 860.96122,46.82394 863.59022,40.46819 866.40622,34.27807 869.49602,27.93028 872.95222,22.37486 876.77472,17.61181 880.59712,12.84921 884.88622,9.3688401 889.64192,7.1706301 894.45532,4.7569501 899.77772,4.3312301 905.60922,5.8934801 910.79242,7.2826001 914.39632,10.67883 916.42082,16.08216 918.71892,21.32781 919.88502,27.77454 919.91922,35.42235 920.22702,42.91249 919.65542,51.09268 918.20472,59.963 916.96962,68.89156 915.33162,77.59619 913.29082,86.07694 911.52352,94.3999 909.57712,102.09596 907.45152,109.16514 905.54172,116.29247 904.03712,121.90783 902.93762,126.01123 M 863.79612,247.46802 C 862.81232,251.13962 861.08032,254.14776 858.60032,256.49248 856.17802,258.62122 853.33152,260.17333 850.06092,261.14883 846.73242,262.34028 843.33262,262.93393 839.86152,262.92981 836.39032,262.92561 833.03492,262.48951 829.79532,261.62149 825.04392,260.3483 820.85562,257.83717 817.23062,254.08809 813.54762,250.55494 812.42952,246.08868 813.87632,240.68928 814.74432,237.44966 816.38952,234.76547 818.81172,232.63671 821.50782,230.34987 824.52012,228.61073 827.84872,227.41925 831.17722,226.22779 834.60592,225.52615 838.13492,225.31431 841.87982,225.16038 845.26412,225.48851 848.28792,226.29868 853.25532,227.6297 857.44352,230.14085 860.85262,233.83208 864.31952,237.30737 865.30072,241.85267 863.79612,247.46802"/>
	</g>
	<g fill="#37474f">
		<path d="M 226.46104,164.58631 C 225.59247,164.58631 224.16056,165.13963 221.91462,167.26944 219.66866,169.39923 217.00222,172.80569 214.16335,176.43681 211.32445,180.06794 208.32099,183.97217 204.47425,187.24388 200.62755,190.51553 195.61608,193.28093 189.71702,193.28093 180.16269,193.28093 170.97578,187.73173 163.25835,180.01432 160.22651,176.98248 157.48978,173.49953 155.20895,169.72898 155.20876,169.82774 155.20895,169.92839 155.20895,170.02711 155.20895,181.2069 156.62503,192.61019 159.53178,204.23705 162.43848,215.64039 166.83584,226.07482 172.64932,235.46574 178.46275,244.85672 185.61777,252.53344 194.11438,258.57049 202.61092,264.60752 212.52358,267.66333 223.92697,267.66333 236.22456,267.66333 246.88256,264.60752 255.82644,258.57049 257.47429,257.4582 259.05488,256.30125 260.59645,255.06751 243.25926,252.73972 232.9101,247.03412 226.90823,240.60841 223.88793,237.37484 222.15207,233.92767 221.09477,230.91932 L 208.72255,230.91932 C 206.07996,230.91932 203.95253,228.79189 203.95253,226.1493 L 203.95253,219.29241 C 203.95253,216.64982 206.07996,214.52239 208.72255,214.52239 L 242.85796,214.52239 C 245.50055,214.52239 247.62797,216.64982 247.62797,219.29241 L 247.62797,226.1493 C 247.62797,228.79189 245.50055,230.91932 242.85796,230.91932 L 234.28684,230.91932 C 234.68907,231.44108 235.10872,231.92808 235.62841,232.48448 240.08665,237.25757 249.895,243.08505 271.62711,244.11139 273.91361,241.30326 276.0238,238.29898 277.96228,235.09308 283.77559,225.47854 288.09842,214.6715 291.00529,202.59736 293.67242,192.30946 295.41536,182.09059 296.29702,171.96493 294.31964,174.86536 292.08243,177.59562 289.66372,180.01432 281.94629,187.73173 272.75939,193.28093 263.20505,193.28093 257.306,193.28093 252.29453,190.51553 248.44782,187.24388 244.60109,183.97217 241.59763,180.06794 238.75873,176.43681 235.91986,172.80569 233.25342,169.39923 231.00746,167.26944 228.76152,165.13963 227.32961,164.58631 226.46104,164.58631 z"/>
		<path d="M 229.66589,63.37258 C 216.69734,63.37277 205.51765,66.72668 196.12673,73.43433 186.73574,79.91873 178.98445,88.41532 172.94744,98.92409 168.74303,106.08724 165.34824,113.89652 162.6621,122.25244 164.0927,121.08748 165.60248,120.01227 167.28305,119.04758 179.69995,111.92006 198.35321,107.79333 226.46104,107.79333 254.56887,107.79333 273.22213,111.92006 285.63902,119.04758 288.25821,120.55104 290.55366,122.30238 292.57045,124.26479 290.29489,115.33728 287.08245,107.03438 282.95589,99.29674 277.58948,89.01157 270.43448,80.51501 261.49083,73.80698 252.77053,66.87575 242.18708,63.37277 229.66589,63.37258 z"/>
		<path d="M 352.64281,53.0127 C 344.26579,59.5916 333.51778,63.59429 322.97929,63.81977 334.52981,97.24368 344.55239,134.94843 341.16497,169.20726 338.99716,191.13163 333.22797,210.20994 323.27741,223.39164 316.46436,232.41703 307.86595,238.90713 296.52062,242.09904 293.8978,246.97101 290.78096,251.5563 287.27872,255.81283 306.98383,253.77043 322.26562,244.42611 332.74291,230.54666 344.64276,214.78272 354.96042,193.02416 357.26376,169.72898 360.90099,132.94354 360.50773,89.61483 352.64281,53.0127 z"/>
	</g>
</svg>
