<?xml version="1.0" encoding="UTF-8" standalone="no"?>
<!-- Created with Inkscape (http://www.inkscape.org/) -->

<svg xmlns:dc="http://purl.org/dc/elements/1.1/" xmlns:cc="http://creativecommons.org/ns#" xmlns:rdf="http://www.w3.org/1999/02/22-rdf-syntax-ns#" xmlns:svg="http://www.w3.org/2000/svg" xmlns="http://www.w3.org/2000/svg" xmlns:sodipodi="http://sodipodi.sourceforge.net/DTD/sodipodi-0.dtd" xmlns:inkscape="http://www.inkscape.org/namespaces/inkscape" width="920" height="267.6633" id="svg2" version="1.1" inkscape:version="0.48.4 r9939" sodipodi:docname="zoinks-logo-light.svg">
    <defs id="defs4" />
    <sodipodi:namedview id="base" pagecolor="#ffffff" bordercolor="#666666" borderopacity="1.0" inkscape:pageopacity="0.0" inkscape:pageshadow="2" inkscape:zoom="0.9899495" inkscape:cx="565.57845" inkscape:cy="132.86223" inkscape:document-units="px" inkscape:current-layer="layer1" showgrid="false" inkscape:window-width="1535" inkscape:window-height="876" inkscape:window-x="65" inkscape:window-y="24" inkscape:window-maximized="1" fit-margin-top="0" fit-margin-left="0" fit-margin-right="0" fit-margin-bottom="0" />
    <metadata id="metadata7">
        <rdf:RDF>
            <cc:Work rdf:about="">
                <dc:format>image/svg+xml</dc:format>
                <dc:type rdf:resource="http://purl.org/dc/dcmitype/StillImage" />
                <dc:title />
            </cc:Work>
        </rdf:RDF>
    </metadata>
    <g inkscape:label="Layer 1" inkscape:groupmode="layer" id="layer1" transform="translate(-217.25038,-159.96983)">
        <path inkscape:connector-curvature="0" id="path3882-3" style="font-size:144px;font-style:normal;font-variant:normal;font-weight:normal;font-stretch:normal;line-height:125%;letter-spacing:0px;word-spacing:0px;fill:#b3e5fc;fill-opacity:1;stroke:none;font-family:Chewy;-inkscape-font-specification:Chewy" d="M 366.4996,195.85673 C 366.4994,196.97492 365.3817,200.21705 363.1457,205.58309 361.1333,210.94956 358.3383,217.54559 354.7611,225.37119 351.1833,233.19716 347.0467,242.02915 342.3514,251.86713 337.8795,261.48184 333.184,271.43177 328.2651,281.71696 323.346,291.77884 318.5386,301.72877 313.8431,311.56682 309.1476,321.40505 304.7874,330.34884 300.763,338.39812 296.96154,346.22401 293.71963,352.93184 291.0365,358.52162 288.35332,363.88795 286.67636,367.24185 286.00555,368.58338 292.93707,366.34748 299.98035,364.55874 307.1355,363.2171 314.5139,361.65203 321.8923,360.86942 329.271,360.86939 332.8486,360.86942 336.6497,361.20484 340.6745,361.87555 344.6989,362.3228 348.3883,363.44076 351.7425,365.22945 355.3198,366.79468 358.2265,369.0306 360.4625,371.93728 362.9218,374.62046 364.1519,378.30976 364.1519,383.00521 364.1519,387.92432 362.4746,392.3962 359.1209,396.42089 355.767,400.22198 351.4069,403.57591 346.0408,406.48264 340.8981,409.38935 334.9727,411.84889 328.2651,413.86126 321.5569,415.87358 314.8493,417.55053 308.1416,418.89211 301.4335,420.23366 295.06124,421.12805 289.02413,421.57525 282.98701,422.24601 277.95607,422.58143 273.93159,422.58143 268.78889,422.58143 263.08714,422.35783 256.82646,421.91064 250.78935,421.46345 244.97607,420.23366 239.38615,418.22132 233.79624,416.20897 229.10085,413.30224 225.29975,409.50115 221.72225,405.47648 219.93352,399.88662 219.93352,392.73157 219.93352,387.81252 221.27508,381.21649 223.95826,372.94349 226.86496,364.44694 230.21886,355.83857 234.01984,347.11832 237.82099,338.17463 241.73393,329.67805 245.75867,321.62855 250.00701,313.35569 253.36095,306.87144 255.82026,302.17586 263.42254,288.08954 271.02482,274.1149 278.62714,260.25193 286.45275,246.16564 294.05504,231.9674 301.4338,217.65718 293.60783,222.12925 284.66398,226.26576 274.6024,230.06668 264.54054,233.64435 255.03765,235.4331 246.09407,235.43294 242.96369,235.4331 239.60976,234.98593 236.03245,234.09139 232.67824,233.19716 229.54805,231.9674 226.64136,230.40207 223.95814,228.6135 221.72225,226.37756 219.93352,223.69422 218.14478,221.01129 217.25038,217.88098 217.25038,214.30326 217.25038,208.49002 219.15091,203.12375 222.95205,198.20447 226.75316,193.28563 231.67226,188.81374 237.70918,184.78882 243.9699,180.76436 250.90111,177.18683 258.50366,174.05627 266.32931,170.92623 274.15493,168.35486 281.98108,166.34229 289.80669,164.33018 297.18514,162.76502 304.1169,161.64681 311.2717,160.52908 317.3089,159.97009 322.228,159.96983 335.1963,159.97009 345.8169,162.5414 354.0903,167.68384 362.3628,172.82675 366.4994,182.21771 366.4996,195.85673" />
        <path inkscape:connector-curvature="0" style="font-size:144px;font-style:normal;font-variant:normal;font-weight:normal;font-stretch:normal;line-height:125%;letter-spacing:0px;word-spacing:0px;fill:#cfd8dc;fill-opacity:1;stroke:none;font-family:Chewy;-inkscape-font-specification:Chewy" d="M 446.9162,223.34239 C 433.9479,223.34259 422.768,226.69649 413.3772,233.40414 403.9861,239.88855 396.2349,248.38512 390.1978,258.89389 385.9935,266.05704 382.5986,273.86632 379.9123,282.22224 381.3431,281.05727 382.8528,279.98208 384.5334,279.01739 396.9503,271.88986 415.6037,267.76313 443.7114,267.76313 471.8192,267.76313 490.4725,271.88986 502.8892,279.01739 505.5086,280.52084 507.8042,282.27219 509.821,284.23459 507.545,275.30707 504.3329,267.00419 500.2062,259.26656 494.8399,248.98139 487.6848,240.48481 478.7414,233.77679 470.0209,226.84557 459.4374,223.34259 446.9162,223.34239 z" id="path3796-7" />
        <path inkscape:connector-curvature="0" style="font-size:144px;font-style:normal;font-variant:normal;font-weight:normal;font-stretch:normal;line-height:125%;letter-spacing:0px;word-spacing:0px;fill:#cddc39;fill-opacity:1;stroke:none;font-family:Chewy;-inkscape-font-specification:Chewy" d="M 443.7114,286.6196 C 416.8386,286.6196 400.163,289.64295 391.0177,294.89258 381.8722,300.14221 379.6143,302.98732 379.6143,310.24608 379.6143,316.88445 383.7879,324.70509 389.7506,330.66768 395.7133,336.63032 403.493,340.20771 406.9673,340.20771 408.8854,340.20771 410.7559,339.40361 413.2281,337.30098 415.7003,335.1984 418.3649,331.96637 421.1284,328.43173 423.8917,324.89713 426.7997,321.09279 430.2212,317.84827 433.6429,314.60377 438.0656,311.51311 443.7114,311.51311 449.3572,311.51311 453.78,314.60377 457.2017,317.84827 460.6231,321.09279 463.5312,324.89713 466.2944,328.43173 469.058,331.96637 471.7226,335.1984 474.1948,337.30098 476.667,339.40361 478.5374,340.20771 480.4555,340.20771 483.9297,340.20771 491.7095,336.63032 497.6722,330.66768 503.6347,324.70509 507.8084,316.88445 507.8084,310.24608 507.8084,302.98732 505.5505,300.14221 496.4053,294.89258 487.2597,289.64295 470.5843,286.6196 443.7114,286.6196 z" id="path3794-8" />
        <path inkscape:connector-curvature="0" style="font-size:144px;font-style:normal;font-variant:normal;font-weight:normal;font-stretch:normal;line-height:125%;letter-spacing:0px;word-spacing:0px;fill:#cfd8dc;fill-opacity:1;stroke:none;font-family:Chewy;-inkscape-font-specification:Chewy" d="M 443.7114,324.55612 C 442.8428,324.55612 441.4111,325.10941 439.165,327.23922 436.919,329.36901 434.2526,332.77549 431.4139,336.40659 428.5749,340.03772 425.5715,343.94195 421.7247,347.21368 417.878,350.48533 412.8664,353.25072 406.9673,353.25072 397.4129,353.25072 388.2261,347.70152 380.5087,339.98411 377.4767,336.95226 374.7403,333.46933 372.4595,329.69876 372.4592,329.79753 372.4595,329.89817 372.4595,329.99691 372.4595,341.1767 373.8755,352.57998 376.7822,364.20683 379.6887,375.61019 384.0862,386.04461 389.8998,395.43552 395.713,404.82651 402.8681,412.50322 411.3649,418.54028 419.8613,424.57729 429.774,427.63312 441.1774,427.63312 453.475,427.63312 464.1329,424.57729 473.0768,418.54028 474.7247,417.42799 476.3053,416.27103 477.8468,415.03728 460.5098,412.7095 450.1604,407.0039 444.1586,400.5782 441.1385,397.34462 439.4026,393.89744 438.3451,390.88911 L 425.9731,390.88911 C 423.3304,390.88911 421.2031,388.76167 421.2031,386.11908 L 421.2031,379.26218 C 421.2031,376.61959 423.3304,374.49218 425.9731,374.49218 L 460.1084,374.49218 C 462.7509,374.49218 464.8784,376.61959 464.8784,379.26218 L 464.8784,386.11908 C 464.8784,388.76167 462.7509,390.88911 460.1084,390.88911 L 451.5373,390.88911 C 451.9395,391.41086 452.359,391.89787 452.8789,392.45427 457.3372,397.22736 467.1453,403.05484 488.8775,404.08117 491.1639,401.27304 493.2742,398.26876 495.2126,395.06288 501.0259,385.44832 505.349,374.64128 508.2555,362.56715 510.9229,352.27926 512.6656,342.06037 513.5472,331.93473 511.5703,334.83515 509.3331,337.5654 506.9141,339.98411 499.1967,347.70152 490.0099,353.25072 480.4555,353.25072 474.5565,353.25072 469.5451,350.48533 465.6981,347.21368 461.8516,343.94195 458.848,340.03772 456.0093,336.40659 453.1703,332.77549 450.5038,329.36901 448.2578,327.23922 446.0118,325.10941 444.5801,324.55612 443.7114,324.55612 z" id="path3884-2" />
        <path style="font-size:144px;font-style:normal;font-variant:normal;font-weight:normal;font-stretch:normal;line-height:125%;letter-spacing:0px;word-spacing:0px;fill:#81d4fa;fill-opacity:1;stroke:none;font-family:Chewy;-inkscape-font-specification:Chewy" d="M 566.3984,183.78263 C 566.3984,186.91317 565.5041,189.70813 563.7156,192.16741 562.1501,194.6272 560.026,196.86312 557.3428,198.87526 554.6597,200.66421 551.7532,202.11759 548.6225,203.23535 545.4923,204.12994 542.5854,204.57713 539.9026,204.57693 535.4306,204.57713 531.5176,203.45917 528.1639,201.223 524.8099,198.98729 523.1329,195.52157 523.1329,190.82585 523.1329,187.47219 523.9153,184.56545 525.4808,182.10568 527.2693,179.42278 529.3934,177.29866 531.8532,175.73325 534.3126,173.94473 537.1076,172.60315 540.2379,171.70856 543.3681,170.8144 546.3865,170.36721 549.2934,170.36698 553.5417,170.36721 557.4547,171.37342 561.0321,173.38549 564.6095,175.39809 566.3984,178.86381 566.3984,183.78263" id="path3797-1" inkscape:connector-curvature="0" />
        <path inkscape:connector-curvature="0" id="path3888-3" style="font-size:144px;font-style:normal;font-variant:normal;font-weight:normal;font-stretch:normal;line-height:125%;letter-spacing:0px;word-spacing:0px;fill:#b3e5fc;fill-opacity:1;stroke:none;font-family:Chewy;-inkscape-font-specification:Chewy" d="M 693.7072,427.27691 C 689.906,427.27689 686.8873,425.48814 684.6516,421.91064 682.4156,418.55674 680.7386,414.64382 679.6206,410.17194 678.5026,405.70006 677.7202,401.22817 677.2731,396.75626 677.0494,392.06081 676.9375,388.48328 676.9375,386.02374 676.9375,379.31595 677.2731,372.60812 677.9436,365.90024 678.8382,359.19247 679.7325,352.48464 680.6267,345.77676 681.7447,339.06902 682.6394,332.36119 683.3103,325.65326 684.2045,318.94551 684.6516,312.23771 684.6516,305.52976 684.6516,302.84675 684.5398,299.94002 684.3164,296.80959 684.0926,293.67939 683.5336,290.77268 682.6394,288.08939 681.9685,285.18281 680.7386,282.83507 678.9501,281.0462 677.1612,279.25758 674.8133,278.36321 671.9068,278.36306 669.8942,278.36321 667.6582,280.04016 665.1992,283.39391 662.739,286.52439 660.3915,290.21369 658.1555,294.46184 656.1433,298.48667 654.3544,302.62316 652.7893,306.87134 651.4479,310.89616 650.777,313.91466 650.777,315.9269 650.777,320.84608 650.777,325.87693 650.777,331.01953 651.0008,335.93869 651.1122,340.96956 651.1122,346.11216 L 651.1122,365.56485 C 650.8889,369.58962 650.5532,373.7261 650.1061,377.97434 649.659,382.22268 648.9881,386.35916 648.0942,390.38383 647.423,394.40857 646.4169,398.32146 645.0755,402.12253 643.7337,405.70006 641.9452,408.94218 639.7092,411.84889 637.697,414.53202 635.2372,416.76797 632.3307,418.55674 629.4238,420.34549 625.9579,421.23985 621.9334,421.23985 617.4617,421.23985 613.7721,419.78647 610.8656,416.87976 607.9587,413.97303 605.6108,410.28374 603.8223,405.81185 602.0334,401.11637 600.6921,395.97373 599.7978,390.38383 599.1269,384.57042 598.5675,378.98055 598.1204,373.61425 597.897,368.02443 597.7852,362.99356 597.7852,358.52162 598.0085,353.82622 598.1204,350.13693 598.1204,347.45371 L 598.1204,331.6903 C 598.1204,323.19383 597.897,314.80905 597.4495,306.53594 597.2265,298.26307 597.1143,289.99009 597.1147,281.71696 597.1143,277.24523 597.1143,271.54356 597.1147,264.61199 597.338,257.68074 598.2323,250.97292 599.7978,244.48851 601.3625,237.78086 603.9342,232.0792 607.5116,227.38354 611.089,222.68826 616.3437,220.3405 623.2751,220.34032 626.4054,220.3405 629.2,221.34669 631.6598,223.35885 634.1192,225.37137 636.2433,227.83091 638.0322,230.73746 640.0445,233.64435 641.61,236.77468 642.728,240.12842 644.069,243.4825 645.0755,246.38924 645.746,248.84859 647.982,245.71845 650.5532,242.69994 653.4601,239.79303 656.5904,236.88647 660.0563,234.31514 663.8574,232.07902 667.6582,229.84328 671.9068,228.05454 676.6022,226.71278 681.2976,225.37137 686.6639,224.70061 692.701,224.70041 704.1045,224.70061 712.9362,227.49552 719.1972,233.08521 725.681,238.45166 730.3768,245.27125 733.2833,253.54408 736.4136,261.59363 738.314,270.31381 738.9852,279.70461 739.6557,289.0957 739.991,297.59228 739.9914,305.19439 739.991,308.99559 739.6557,314.69725 738.9852,322.29933 738.314,329.67805 737.196,337.95103 735.6312,347.11832 734.2895,356.06216 732.3887,365.34133 729.9297,374.95583 727.4699,384.34682 724.563,392.95519 721.2094,400.78095 717.8554,408.60679 713.8305,414.97922 709.1351,419.8983 704.6635,424.81735 699.5206,427.27689 693.7072,427.27691" />
        <path inkscape:connector-curvature="0" id="path3890-1" style="font-size:144px;font-style:normal;font-variant:normal;font-weight:normal;font-stretch:normal;line-height:125%;letter-spacing:0px;word-spacing:0px;fill:#b3e5fc;fill-opacity:1;stroke:none;font-family:Chewy;-inkscape-font-specification:Chewy" d="M 907.6872,237.44529 C 907.6868,243.7061 906.0098,250.07853 902.6561,256.56261 899.5255,263.04701 895.6125,269.53122 890.9175,276.01529 886.4454,282.27608 881.6382,288.31314 876.4957,294.12645 871.5765,299.71642 867.2164,304.8591 863.4156,309.55445 866.5455,314.47365 870.4585,321.06968 875.1539,329.34258 879.8497,337.39204 884.3213,346.00041 888.57,355.1677 892.8178,364.33514 896.3956,373.27891 899.3021,381.99903 902.4324,390.71925 903.9975,397.98607 903.9979,403.79951 903.9975,408.49499 902.5443,412.85505 899.6377,416.87976 896.7309,420.68086 892.706,422.58143 887.5638,422.58143 883.7623,422.58143 879.8497,421.01628 875.8248,417.88595 872.0236,414.53202 868.1106,410.28374 864.0861,405.14106 860.285,399.77479 856.5957,393.84955 853.0183,387.3653 849.4405,380.88112 846.0869,374.50869 842.9563,368.24801 840.0498,361.9874 837.3666,356.17396 834.9072,350.80764 832.6712,345.21785 830.8823,340.74597 829.541,337.39196 826.6341,340.29877 823.5038,342.75831 820.1498,344.77058 817.0195,346.5594 813.8889,348.68355 810.759,351.14301 810.7586,355.83857 810.5353,362.43459 810.0881,370.93112 809.8648,379.42774 808.8583,387.81252 807.0698,396.08547 805.5046,404.3585 802.8211,411.62529 799.02,417.88595 795.2188,423.92296 789.6292,426.94151 782.2507,426.94151 776.4373,426.94151 771.9652,424.25838 768.835,418.89211 765.7043,413.74944 763.3568,407.7124 761.7917,400.78095 760.4503,393.62596 759.6676,386.47096 759.4442,379.31592 759.2204,371.93733 759.1086,366.34748 759.1086,362.54634 759.1086,346.00041 759.5557,329.45446 760.4503,312.90837 761.3446,296.36252 761.9036,279.81654 762.1273,263.27043 762.1273,259.46949 762.1273,254.55042 762.1273,248.5132 762.3507,242.25275 762.7978,235.54492 763.4687,228.38973 764.1396,221.23488 765.1453,213.96807 766.4871,206.58927 767.8288,199.21086 769.7292,192.61486 772.1886,186.80116 774.6484,180.76436 777.7786,175.95708 781.5798,172.37932 785.6047,168.57846 790.4116,166.67791 796.0016,166.67766 800.0265,166.67791 803.3801,168.24309 806.0632,171.37314 808.9701,174.2801 811.2058,178.08122 812.7713,182.77647 814.5598,187.47219 815.7897,192.72663 816.4605,198.53989 817.3548,204.35354 817.9138,210.16697 818.1375,215.98023 818.5847,221.57028 818.808,226.82475 818.808,231.74363 818.808,236.66288 818.808,240.57577 818.808,243.48235 818.808,245.49485 818.6965,248.51338 818.4728,252.53789 818.4728,256.33916 818.3609,260.36386 818.1375,264.61199 818.1375,268.86043 818.1375,272.77334 818.1375,276.35071 818.1375,279.92834 818.3609,282.49968 818.808,284.0647 820.3736,284.06485 822.7211,282.61148 825.8513,279.70461 828.982,276.57444 832.5594,272.66152 836.5842,267.96591 840.8321,263.27058 845.3042,258.35151 849.9995,253.20868 854.9187,247.84259 859.8378,242.81171 864.757,238.11608 869.8995,233.42075 874.9305,229.61969 879.8497,226.71278 884.7684,223.58263 889.3523,222.01747 893.6006,222.0173 898.0726,222.01747 901.5381,223.58263 903.9979,226.71278 906.4573,229.84328 907.6868,233.42075 907.6872,237.44529" />
        <path inkscape:connector-curvature="0" id="path3892-0" style="font-size:144px;font-style:normal;font-variant:normal;font-weight:normal;font-stretch:normal;line-height:125%;letter-spacing:0px;word-spacing:0px;fill:#b3e5fc;fill-opacity:1;stroke:none;font-family:Chewy;-inkscape-font-specification:Chewy" d="M 1034.4597,233.4206 C 1034.4597,239.90501 1032.2236,244.71226 1027.752,247.84241 1023.5037,250.97292 1018.6961,253.99145 1013.3302,256.898 1007.9635,259.58127 1003.0444,262.82339 998.5728,266.62433 994.3245,270.42561 992.2004,276.12727 992.2004,283.72933 992.2004,287.75415 993.0946,291.21987 994.8835,294.12645 996.8957,297.03331 999.2436,299.71642 1001.9268,302.17586 1004.8333,304.4119 1007.9635,306.75964 1011.3176,309.21908 1014.6716,311.67872 1017.69,314.47365 1020.3731,317.60385 1023.28,320.73429 1025.6275,324.53538 1027.4164,329.00718 1029.4286,333.47915 1030.4348,338.95719 1030.4351,345.44137 1030.4348,354.83238 1027.9754,364.11154 1023.0562,373.27886 1018.3608,382.22268 1012.2118,390.27206 1004.6099,397.42705 997.2314,404.3585 988.8463,409.94834 979.4556,414.19663 970.0644,418.44492 960.7855,420.56908 951.6181,420.56908 947.8169,420.56908 944.0158,420.23366 940.2146,419.5629 936.4135,419.11571 932.948,418.10955 929.8177,416.54437 926.9108,414.97922 924.4511,412.85505 922.4388,410.17194 920.4266,407.26523 919.4204,403.57591 919.4204,399.104 919.4204,392.84339 920.6499,388.03611 923.1097,384.68216 925.5691,381.10469 928.6997,378.30976 932.5009,376.29739 936.302,374.2851 940.3265,372.71992 944.5748,371.60191 949.0464,370.48397 953.1832,369.14242 956.9843,367.57722 960.7855,365.78852 963.9154,363.55255 966.3755,360.86939 968.8345,358.18631 970.0644,354.38519 970.0644,349.46606 970.0644,344.77066 968.164,339.96335 964.3629,335.04422 960.7855,329.90165 956.7606,324.53538 952.289,318.94543 947.8169,313.1321 943.6802,306.98324 939.879,300.49891 936.302,294.01478 934.5131,286.85976 934.5131,279.03385 934.5131,269.41942 936.4135,260.58748 940.2146,252.53789 944.2392,244.26507 949.4939,237.11007 955.9782,231.07284 962.6859,225.03598 970.2881,220.3405 978.7847,216.98639 987.2812,213.4091 996.2249,211.62035 1005.616,211.62015 1009.1934,211.62035 1012.6589,211.95572 1016.0129,212.62631 1019.5907,213.2973 1022.721,214.52709 1025.4041,216.31563 1028.0869,217.88098 1030.2114,220.1169 1031.7765,223.02345 1033.565,225.70677 1034.4597,229.1725 1034.4597,233.4206" />
        <path inkscape:connector-curvature="0" id="path3894-0" style="font-size:144px;font-style:normal;font-variant:normal;font-weight:normal;font-stretch:normal;line-height:125%;letter-spacing:0px;word-spacing:0px;fill:#b3e5fc;fill-opacity:1;stroke:none;font-family:Chewy;-inkscape-font-specification:Chewy" d="M 1120.1881,285.98104 C 1119.262,289.43677 1117.773,294.13037 1115.7207,300.06184 1113.7261,305.77752 1111.371,311.97517 1108.6551,318.65484 1105.997,325.11866 1102.8494,331.68267 1099.2121,338.34681 1095.8484,344.85298 1092.3053,350.73237 1088.5833,355.98496 1084.9187,361.02166 1081.0829,364.97069 1077.0753,367.83204 1073.1258,370.47751 1069.2074,371.27939 1065.3197,370.23769 1060.5682,368.96457 1057.0723,365.59728 1054.8321,360.13582 1052.8656,354.51636 1051.6496,347.82471 1051.1836,340.0609 1050.991,332.13909 1051.4335,323.57705 1052.5104,314.37474 1053.5872,305.17262 1054.9301,296.27321 1056.5391,287.67641 1058.2057,278.86394 1059.8866,270.86507 1061.5801,263.67989 1063.5478,256.33684 1065.0522,250.72147 1066.0937,246.8338 1067.1355,242.94639 1068.4377,238.08692 1070.0005,232.25543 1071.6206,226.20829 1073.5437,219.89488 1075.7697,213.31521 1078.2118,206.79376 1080.8403,200.43801 1083.6565,194.24789 1086.7464,187.90011 1090.2027,182.34468 1094.0253,177.58163 1097.8472,172.81902 1102.1366,169.33867 1106.8924,167.14046 1111.7054,164.72678 1117.0279,164.30104 1122.8597,165.86331 1128.0426,167.25241 1131.6465,170.64864 1133.6711,176.05198 1135.969,181.29764 1137.1354,187.74436 1137.1697,195.39217 1137.4772,202.88231 1136.9059,211.06249 1135.455,219.93282 1134.2201,228.86136 1132.5819,237.566 1130.5412,246.04676 1128.7739,254.36971 1126.8273,262.06576 1124.7017,269.13495 1122.7921,276.26228 1121.2873,281.87763 1120.1881,285.98104 M 1081.0464,407.4378 C 1080.0626,411.10939 1078.3306,414.11754 1075.8508,416.46227 1073.4284,418.591 1070.5818,420.14312 1067.3112,421.1186 1063.983,422.31005 1060.5828,422.90371 1057.1119,422.89959 1053.6407,422.89539 1050.2851,422.45928 1047.0457,421.59127 1042.2941,420.31808 1038.1059,417.80695 1034.4808,414.05786 1030.7981,410.52472 1029.6797,406.05845 1031.1268,400.65906 1031.9945,397.41945 1033.64,394.73526 1036.0621,392.60651 1038.7583,390.31966 1041.7705,388.58053 1045.0988,387.38902 1048.4278,386.19757 1051.8564,385.49592 1055.3853,385.2841 1059.13,385.13016 1062.5144,385.45829 1065.5381,386.26847 1070.5057,387.59948 1074.694,390.11064 1078.103,393.80187 1081.57,397.27715 1082.5512,401.82245 1081.0464,407.4378" />
        <path inkscape:connector-curvature="0" style="font-size:medium;font-style:normal;font-variant:normal;font-weight:normal;font-stretch:normal;text-indent:0;text-align:start;text-decoration:none;line-height:normal;letter-spacing:normal;word-spacing:normal;text-transform:none;direction:ltr;block-progression:tb;writing-mode:lr-tb;text-anchor:start;baseline-shift:baseline;color:#000000;fill:#cfd8dc;fill-opacity:1;stroke:none;stroke-width:5;marker:none;visibility:visible;display:inline;overflow:visible;enable-background:accumulate;font-family:Sans;-inkscape-font-specification:Sans" d="M 569.8931,212.98252 C 561.5165,219.56141 550.7682,223.5641 540.2298,223.78958 551.7805,257.21348 561.8029,294.91823 558.4155,329.17705 556.2475,351.10143 550.4783,370.17972 540.5278,383.36142 533.7147,392.38682 525.1163,398.8769 513.7709,402.06882 511.1482,406.94078 508.0314,411.52609 504.529,415.78262 524.2344,413.74021 539.5159,404.3959 549.9935,390.51644 561.8933,374.75251 572.211,352.99394 574.5143,329.69876 578.1513,292.91333 577.7583,249.58464 569.8931,212.98252 z" id="path3799-8" />
    </g>
</svg>
