<?xml version="1.0" encoding="UTF-8" standalone="no"?>
<!-- Created with Inkscape (http://www.inkscape.org/) -->

<svg xmlns:dc="http://purl.org/dc/elements/1.1/" xmlns:cc="http://creativecommons.org/ns#" xmlns:rdf="http://www.w3.org/1999/02/22-rdf-syntax-ns#" xmlns:svg="http://www.w3.org/2000/svg" xmlns="http://www.w3.org/2000/svg" xmlns:sodipodi="http://sodipodi.sourceforge.net/DTD/sodipodi-0.dtd" xmlns:inkscape="http://www.inkscape.org/namespaces/inkscape" width="920" height="267.66333" id="svg2" version="1.1" inkscape:version="0.48.4 r9939" sodipodi:docname="zoinks-logo.svg">
    <defs id="defs4" />
    <sodipodi:namedview id="base" pagecolor="#ffffff" bordercolor="#666666" borderopacity="1.0" inkscape:pageopacity="0.0" inkscape:pageshadow="2" inkscape:zoom="0.49497475" inkscape:cx="663.76647" inkscape:cy="432.48863" inkscape:document-units="px" inkscape:current-layer="layer1" showgrid="false" inkscape:window-width="1535" inkscape:window-height="876" inkscape:window-x="65" inkscape:window-y="24" inkscape:window-maximized="1" fit-margin-top="0" fit-margin-left="0" fit-margin-right="0" fit-margin-bottom="0" />
    <metadata id="metadata7">
        <rdf:RDF>
            <cc:Work rdf:about="">
                <dc:format>image/svg+xml</dc:format>
                <dc:type rdf:resource="http://purl.org/dc/dcmitype/StillImage" />
                <dc:title />
            </cc:Work>
        </rdf:RDF>
    </metadata>
    <g inkscape:label="Layer 1" inkscape:groupmode="layer" id="layer1" transform="translate(-217.25038,-159.96979)">
        <path inkscape:connector-curvature="0" id="path3882" style="font-size:144px;font-style:normal;font-variant:normal;font-weight:normal;font-stretch:normal;line-height:125%;letter-spacing:0px;word-spacing:0px;fill:#01579b;fill-opacity:1;stroke:none;font-family:Chewy;-inkscape-font-specification:Chewy" d="M 366.49966,195.8567 C 366.49949,196.97489 365.38152,200.217 363.14574,205.58305 361.13322,210.94953 358.3383,217.54555 354.76094,225.37116 351.18328,233.19713 347.0468,242.02913 342.35146,251.86709 337.87943,261.48181 333.18397,271.43175 328.26501,281.71695 323.34582,291.77882 318.53855,301.72876 313.84316,311.56679 309.14758,321.40504 304.78751,330.34882 300.7629,338.39812 296.9617,346.224 293.71959,352.93183 291.03653,358.52162 288.35333,363.88793 286.67638,367.24185 286.00567,368.58337 292.937,366.34747 299.98024,364.55872 307.13533,363.2171 314.51385,361.65201 321.89247,360.86942 329.27118,360.86937 332.84857,360.86942 336.64967,361.20482 340.67449,361.87553 344.69907,362.32279 348.38837,363.44074 351.74243,365.22945 355.31979,366.79466 358.22652,369.0306 360.46261,371.93728 362.92198,374.62046 364.15176,378.30976 364.1519,383.00522 364.15176,387.92432 362.47479,392.39621 359.12104,396.42088 355.76698,400.22199 351.40688,403.5759 346.04076,406.48263 340.89797,409.38936 334.97273,411.8489 328.26501,413.86125 321.55706,415.87359 314.84923,417.55054 308.14152,418.89211 301.43359,420.23367 295.06116,421.12805 289.02418,421.57524 282.98706,422.24602 277.9562,422.58143 273.93157,422.58143 268.78883,422.58143 263.08718,422.35783 256.82659,421.91064 250.78949,421.46345 244.97604,420.23367 239.38623,418.22132 233.79634,416.20897 229.10086,413.30225 225.29978,409.50114 221.72224,405.47647 219.93351,399.88661 219.93351,392.73156 219.93351,387.81251 221.27506,381.21649 223.95821,372.94347 226.86492,364.44693 230.21883,355.83856 234.01996,347.1183 237.82104,338.17462 241.73393,329.67804 245.75865,321.62854 250.00692,313.35567 253.36084,306.87143 255.8204,302.17583 263.42256,288.08952 271.02477,274.11489 278.62706,260.25189 286.45279,246.16561 294.05497,231.96738 301.43368,217.65714 293.60779,222.12922 284.66403,226.26573 274.60236,230.06665 264.54054,233.64432 255.03779,235.43308 246.09406,235.43291 242.96371,235.43308 239.6098,234.98589 236.03231,234.09135 232.67837,233.19713 229.54805,231.96738 226.64134,230.40203 223.95819,228.61346 221.72224,226.37752 219.93351,223.69419 218.14476,221.01125 217.25038,217.88095 217.25038,214.30323 217.25038,208.48999 219.15092,203.12372 222.95203,198.20443 226.75313,193.28559 231.67221,188.81371 237.70926,184.78877 243.96988,180.76431 250.9013,177.1868 258.50354,174.05624 266.32929,170.92618 274.1551,168.35483 281.98097,166.34224 289.80668,164.33013 297.1853,162.76497 304.11682,161.64676 311.27174,160.52903 317.30877,159.97005 322.22796,159.96979 335.19632,159.97005 345.81704,162.54137 354.09015,167.68381 362.363,172.82672 366.49949,182.21768 366.49966,195.8567" />
        <path style="font-size:144px;font-style:normal;font-variant:normal;font-weight:normal;font-stretch:normal;line-height:125%;letter-spacing:0px;word-spacing:0px;fill:#37474f;fill-opacity:1;stroke:none;font-family:Chewy;-inkscape-font-specification:Chewy" d="M 446.91627,223.34236 C 433.94772,223.34255 422.76803,226.69646 413.37711,233.40411 403.98612,239.88851 396.23483,248.3851 390.19782,258.89387 385.99341,266.05702 382.59862,273.8663 379.91248,282.22222 381.34308,281.05726 382.85286,279.98205 384.53343,279.01736 396.95033,271.88984 415.60359,267.76311 443.71142,267.76311 471.81925,267.76311 490.47251,271.88984 502.8894,279.01736 505.50859,280.52082 507.80404,282.27216 509.82083,284.23457 507.54527,275.30706 504.33283,267.00416 500.20627,259.26652 494.83986,248.98135 487.68486,240.48479 478.74121,233.77676 470.02091,226.84553 459.43746,223.34255 446.91627,223.34236 z" id="path3796" />
        <path style="font-size:144px;font-style:normal;font-variant:normal;font-weight:normal;font-stretch:normal;line-height:125%;letter-spacing:0px;word-spacing:0px;fill:#8bc34a;fill-opacity:1;stroke:none;font-family:Chewy;-inkscape-font-specification:Chewy" d="M 443.71142,286.61957 C 416.83854,286.61957 400.16307,289.64293 391.01767,294.89257 381.87224,300.14218 379.61436,302.9873 379.61436,310.24605 379.61436,316.88445 383.78802,324.70506 389.75064,330.66767 395.71327,336.63031 403.49312,340.2077 406.9674,340.2077 408.88547,340.2077 410.75592,339.40359 413.22805,337.30097 415.7002,335.19837 418.36495,331.96635 421.12838,328.43173 423.8918,324.89712 426.79974,321.09277 430.22122,317.84826 433.64275,314.60374 438.06568,311.51308 443.71142,311.51308 449.35716,311.51308 453.78008,314.60374 457.20161,317.84826 460.6231,321.09277 463.53104,324.89712 466.29445,328.43173 469.05789,331.96635 471.72263,335.19837 474.19479,337.30097 476.66692,339.40359 478.53736,340.2077 480.45543,340.2077 483.92972,340.2077 491.70956,336.63031 497.6722,330.66767 503.63481,324.70506 507.80848,316.88445 507.80848,310.24605 507.80848,302.9873 505.55059,300.14218 496.40517,294.89257 487.25976,289.64293 470.58429,286.61957 443.71142,286.61957 z" id="path3794" />
        <path style="font-size:144px;font-style:normal;font-variant:normal;font-weight:normal;font-stretch:normal;line-height:125%;letter-spacing:0px;word-spacing:0px;fill:#37474f;fill-opacity:1;stroke:none;font-family:Chewy;-inkscape-font-specification:Chewy" d="M 443.71142,324.55609 C 442.84285,324.55609 441.41094,325.10941 439.165,327.23922 436.91904,329.36901 434.2526,332.77547 431.41373,336.40659 428.57483,340.03772 425.57137,343.94195 421.72463,347.21366 417.87793,350.48531 412.86646,353.25071 406.9674,353.25071 397.41307,353.25071 388.22616,347.70151 380.50873,339.9841 377.47689,336.95226 374.74016,333.46931 372.45933,329.69876 372.45914,329.79752 372.45933,329.89817 372.45933,329.99689 372.45933,341.17668 373.87541,352.57997 376.78216,364.20683 379.68886,375.61017 384.08622,386.0446 389.8997,395.43552 395.71313,404.8265 402.86815,412.50322 411.36476,418.54027 419.8613,424.5773 429.77396,427.63311 441.17735,427.63311 453.47494,427.63311 464.13294,424.5773 473.07682,418.54027 474.72467,417.42798 476.30526,416.27103 477.84683,415.03729 460.50964,412.7095 450.16048,407.0039 444.15861,400.57819 441.13831,397.34462 439.40245,393.89745 438.34515,390.8891 L 425.97293,390.8891 C 423.33034,390.8891 421.20291,388.76167 421.20291,386.11908 L 421.20291,379.26219 C 421.20291,376.6196 423.33034,374.49217 425.97293,374.49217 L 460.10834,374.49217 C 462.75093,374.49217 464.87835,376.6196 464.87835,379.26219 L 464.87835,386.11908 C 464.87835,388.76167 462.75093,390.8891 460.10834,390.8891 L 451.53722,390.8891 C 451.93945,391.41086 452.3591,391.89786 452.87879,392.45426 457.33703,397.22735 467.14538,403.05483 488.87749,404.08117 491.16399,401.27304 493.27418,398.26876 495.21266,395.06286 501.02597,385.44832 505.3488,374.64128 508.25567,362.56714 510.9228,352.27924 512.66574,342.06037 513.5474,331.93471 511.57002,334.83514 509.33281,337.5654 506.9141,339.9841 499.19667,347.70151 490.00977,353.25071 480.45543,353.25071 474.55638,353.25071 469.54491,350.48531 465.6982,347.21366 461.85147,343.94195 458.84801,340.03772 456.00911,336.40659 453.17024,332.77547 450.5038,329.36901 448.25784,327.23922 446.0119,325.10941 444.57999,324.55609 443.71142,324.55609 z" id="path3884" />
        <path style="font-size:144px;font-style:normal;font-variant:normal;font-weight:normal;font-stretch:normal;line-height:125%;letter-spacing:0px;word-spacing:0px;fill:#0277bd;fill-opacity:1;stroke:none;font-family:Chewy;-inkscape-font-specification:Chewy" d="M 566.39835,183.7826 C 566.39827,186.91314 565.5039,189.70808 563.71521,192.16738 562.15001,194.62716 560.02585,196.86308 557.34278,198.87521 554.65958,200.66418 551.75285,202.11756 548.6226,203.23532 545.49223,204.12991 542.58551,204.5771 539.90242,204.57688 535.43049,204.5771 531.5176,203.45913 528.1637,201.22297 524.80976,198.98724 523.13282,195.52154 523.13284,190.82582 523.13282,187.47214 523.91539,184.56541 525.48057,182.10563 527.2693,179.42274 529.39344,177.29861 531.85302,175.73321 534.31251,173.94469 537.10746,172.60312 540.2378,171.70851 543.36808,170.81437 546.38661,170.36718 549.29339,170.36694 553.54161,170.36718 557.45452,171.37337 561.03208,173.38545 564.60952,175.39804 566.39827,178.86377 566.39835,183.7826" id="path3797" inkscape:connector-curvature="0" />
        <path inkscape:connector-curvature="0" id="path3888" style="font-size:144px;font-style:normal;font-variant:normal;font-weight:normal;font-stretch:normal;line-height:125%;letter-spacing:0px;word-spacing:0px;fill:#01579b;fill-opacity:1;stroke:none;font-family:Chewy;-inkscape-font-specification:Chewy" d="M 693.7072,427.27691 C 689.90598,427.27689 686.88747,425.48813 684.65162,421.91064 682.41558,418.55673 680.73863,414.64381 679.62076,410.17193 678.50269,405.70006 677.7201,401.22817 677.273,396.75626 677.04931,392.0608 676.93753,388.48329 676.93762,386.02373 676.93753,379.31595 677.27291,372.60811 677.94379,365.90023 678.83807,359.19247 679.73245,352.48464 680.62692,345.77674 681.7448,339.069 682.63917,332.36117 683.31005,325.65324 684.20433,318.9455 684.65152,312.2377 684.65162,305.52975 684.65152,302.84673 684.53974,299.94 684.31624,296.80956 684.09255,293.67936 683.53355,290.77266 682.63927,288.08938 681.96839,285.1828 680.73863,282.83504 678.94997,281.04617 677.16112,279.25756 674.81337,278.36318 671.90674,278.36304 669.89432,278.36318 667.65837,280.04013 665.19891,283.3939 662.7393,286.52436 660.39157,290.21366 658.15569,294.46183 656.14327,298.48665 654.35452,302.62314 652.78943,306.87131 651.44779,310.89613 650.77701,313.91464 650.77708,315.9269 650.77701,320.84607 650.77701,325.87693 650.77708,331.01951 651.0006,335.93868 651.11239,340.96954 651.11246,346.11214 L 651.11246,365.56485 C 650.88879,369.5896 650.55341,373.72609 650.1063,377.97433 649.65903,382.22267 648.98825,386.35916 648.09395,390.38383 647.42309,394.40856 646.41693,398.32145 645.07541,402.12253 643.7338,405.70006 641.94504,408.94217 639.70914,411.8489 637.69675,414.53203 635.23721,416.76797 632.33053,418.55673 629.42375,420.34548 625.95805,421.23986 621.9334,421.23986 617.46146,421.23986 613.77217,419.78648 610.86547,416.87976 607.95871,413.97303 605.61099,410.28373 603.82225,405.81185 602.03347,401.11636 600.69191,395.97372 599.79755,390.38383 599.12675,384.5704 598.56777,378.98054 598.12058,373.61425 597.89699,368.02444 597.78518,362.99355 597.7852,358.52162 598.00878,353.82621 598.12058,350.13691 598.12058,347.45371 L 598.12058,331.69029 C 598.12058,323.1938 597.89699,314.80902 597.4498,306.53593 597.22621,298.26306 597.1144,289.99007 597.11442,281.71695 597.1144,277.24521 597.1144,271.54354 597.11442,264.61197 597.33799,257.68071 598.23237,250.97288 599.79755,244.48847 601.36269,237.78083 603.93402,232.07916 607.51155,227.38351 611.08904,222.68822 616.34349,220.34047 623.27497,220.34028 626.40524,220.34047 629.20016,221.34666 631.65974,223.35881 634.11924,225.37135 636.24339,227.83089 638.0322,230.73743 640.04448,233.64432 641.60964,236.77465 642.72768,240.12839 644.06917,243.48248 645.07536,246.3892 645.74619,248.84858 647.98209,245.71842 650.55341,242.69991 653.46021,239.79299 656.59046,236.88645 660.05616,234.31511 663.85734,232.079 667.65837,229.84324 671.90667,228.05449 676.60222,226.71273 681.29761,225.37135 686.66387,224.70057 692.70102,224.70038 704.10421,224.70057 712.93618,227.49549 719.19697,233.08516 725.68106,238.45162 730.37654,245.27123 733.28341,253.54406 736.41357,261.5936 738.31413,270.31378 738.98506,279.7046 739.6557,289.09569 739.99108,297.59227 739.99124,305.19437 739.99108,308.99557 739.6557,314.69723 738.98506,322.29933 738.31413,329.67804 737.19616,337.95103 735.63114,347.1183 734.28943,356.06215 732.38889,365.34131 729.9295,374.95582 727.46982,384.34681 724.56309,392.95518 721.20932,400.78096 717.85526,408.60679 713.83056,414.97922 709.13522,419.89829 704.66321,424.81735 699.52054,427.27689 693.7072,427.27691" />
        <path inkscape:connector-curvature="0" id="path3890" style="font-size:144px;font-style:normal;font-variant:normal;font-weight:normal;font-stretch:normal;line-height:125%;letter-spacing:0px;word-spacing:0px;fill:#01579b;fill-opacity:1;stroke:none;font-family:Chewy;-inkscape-font-specification:Chewy" d="M 907.68705,237.44526 C 907.68688,243.70607 906.00991,250.0785 902.65616,256.56257 899.5257,263.04698 895.61278,269.53119 890.91747,276.01528 886.44544,282.27607 881.63817,288.31312 876.49562,294.12643 871.57642,299.71641 867.21634,304.85908 863.41536,309.55444 866.54556,314.47364 870.45845,321.06966 875.15405,329.34256 879.84941,337.39203 884.32128,346.0004 888.56971,355.1677 892.81786,364.33512 896.39537,373.2789 899.30224,381.99903 902.43242,390.71924 903.99758,397.98607 903.99773,403.7995 903.99758,408.49498 902.54421,412.85506 899.63765,416.87976 896.73075,420.68086 892.70608,422.58143 887.56355,422.58143 883.7623,422.58143 879.84941,421.01627 875.82483,417.88594 872.02361,414.53203 868.11072,410.28373 864.08614,405.14106 860.28491,399.7748 856.59562,393.84956 853.0182,387.3653 849.4406,380.88111 846.08668,374.50868 842.95646,368.24799 840.04963,361.98739 837.3665,356.17394 834.90706,350.80762 832.67104,345.21783 830.88229,340.74595 829.54079,337.39196 826.63399,340.29876 823.50367,342.7583 820.14983,344.77057 817.01943,346.5594 813.88911,348.68354 810.75886,351.143 810.75879,355.83856 810.5352,362.43458 810.08808,370.93112 809.86444,379.42773 808.85825,387.81251 807.06957,396.08548 805.50433,404.35849 802.8212,411.6253 799.02017,417.88594 795.21901,423.92297 789.62915,426.94151 782.25059,426.94151 776.43708,426.94151 771.96522,424.25837 768.83492,418.89211 765.70458,413.74944 763.35682,407.71241 761.79169,400.78096 760.45012,393.62596 759.66753,386.47097 759.44396,379.3159 759.22034,371.93733 759.10855,366.34747 759.10855,362.54632 759.10855,346.0004 759.55574,329.45444 760.45012,312.90836 761.3445,296.36249 761.90347,279.81653 762.12709,263.2704 762.12707,259.46947 762.12707,254.55039 762.12709,248.51317 762.35066,242.25272 762.79785,235.54489 763.46866,228.38968 764.13942,221.23485 765.14558,213.96804 766.48717,206.58923 767.82871,199.21083 769.72928,192.61481 772.18884,186.80112 774.64833,180.76431 777.77865,175.95704 781.5798,172.37929 785.60446,168.57842 790.41172,166.67788 796.00163,166.67762 800.02628,166.67788 803.3802,168.24304 806.06338,171.3731 808.97006,174.28007 811.20598,178.08117 812.77121,182.77642 814.55989,187.47214 815.78968,192.7266 816.46053,198.53984 817.35484,204.3535 817.91381,210.16694 818.13748,215.9802 818.58459,221.57025 818.80819,226.82471 818.80826,231.74359 818.80819,236.66286 818.80819,240.57575 818.80826,243.48231 818.80819,245.49483 818.6964,248.51334 818.47288,252.53787 818.47281,256.33914 818.361,260.36384 818.13748,264.61197 818.13741,268.86041 818.13741,272.77332 818.13748,276.35069 818.13741,279.92832 818.361,282.49966 818.80826,284.06468 820.37335,284.06483 822.72108,282.61145 825.8515,279.7046 828.98172,276.57442 832.55923,272.66151 836.58403,267.96589 840.83223,263.27057 845.30411,258.35149 849.99969,253.20865 854.91865,247.84256 859.83773,242.81169 864.75692,238.11604 869.89945,233.42073 874.93034,229.61965 879.84953,226.71273 884.76847,223.5826 889.35216,222.01744 893.6006,222.01725 898.07232,222.01744 901.53805,223.5826 903.99773,226.71273 906.4571,229.84324 907.68688,233.42073 907.68705,237.44526" />
        <path inkscape:connector-curvature="0" id="path3892" style="font-size:144px;font-style:normal;font-variant:normal;font-weight:normal;font-stretch:normal;line-height:125%;letter-spacing:0px;word-spacing:0px;fill:#01579b;fill-opacity:1;stroke:none;font-family:Chewy;-inkscape-font-specification:Chewy" d="M 1034.4597,233.42056 C 1034.4596,239.90497 1032.2237,244.71223 1027.7519,247.84239 1023.5035,250.97288 1018.6962,253.99141 1013.3301,256.89797 1007.9637,259.58125 1003.0446,262.82338 998.57284,266.62432 994.32448,270.42557 992.20032,276.12724 992.20039,283.7293 992.20032,287.75412 993.09469,291.21985 994.88352,294.12643 996.8958,297.03328 999.24355,299.71641 1001.9268,302.17583 1004.8334,304.41189 1007.9637,306.75962 1011.3177,309.21906 1014.6715,311.6787 1017.6901,314.47364 1020.3733,317.60384 1023.2799,320.73426 1025.6276,324.53536 1027.4165,329.00716 1029.4287,333.47914 1030.4349,338.95719 1030.435,345.44136 1030.4349,354.83237 1027.9754,364.11153 1023.0564,373.27885 1018.3608,382.22267 1012.212,390.27205 1004.6099,397.42704 997.2312,404.35849 988.8464,409.94835 979.45551,414.19662 970.0645,418.44492 960.78534,420.56908 951.61802,420.56908 947.81689,420.56908 944.01578,420.23367 940.2147,419.56289 936.41357,419.1157 932.94787,418.10954 929.81755,416.54438 926.91082,414.97922 924.45128,412.85506 922.43894,410.17193 920.42659,407.26522 919.42042,403.5759 919.42042,399.10401 919.42042,392.8434 920.65018,388.0361 923.10972,384.68216 925.56926,381.1047 928.69958,378.30976 932.50068,376.29739 936.30179,374.28508 940.32646,372.71992 944.57478,371.6019 949.04665,370.48398 953.18313,369.14241 956.98428,367.5772 960.78534,365.7885 963.91566,363.55255 966.37525,360.86937 968.83474,358.18629 970.0645,354.38518 970.06454,349.46606 970.0645,344.77065 968.16395,339.96335 964.3629,335.04421 960.78534,329.90163 956.76064,324.53536 952.2888,318.94541 947.81689,313.13207 943.68038,306.98322 939.8793,300.49888 936.30179,294.01476 934.51303,286.85974 934.51303,279.03382 934.51303,269.4194 936.41357,260.58744 940.2147,252.53787 944.23938,244.26505 949.49383,237.11005 955.9781,231.07281 962.6859,225.03595 970.28809,220.34047 978.78472,216.98636 987.28126,213.40907 996.22502,211.62031 1005.6161,211.6201 1009.1935,211.62031 1012.6592,211.95569 1016.0132,212.62628 1019.5906,213.29726 1022.7209,214.52704 1025.4042,216.31558 1028.0872,217.88095 1030.2113,220.11687 1031.7766,223.02341 1033.5653,225.70673 1034.4596,229.17246 1034.4597,233.42056" />
        <path inkscape:connector-curvature="0" id="path3894" style="font-size:144px;font-style:normal;font-variant:normal;font-weight:normal;font-stretch:normal;line-height:125%;letter-spacing:0px;word-spacing:0px;fill:#01579b;fill-opacity:1;stroke:none;font-family:Chewy;-inkscape-font-specification:Chewy" d="M 1120.188,285.98101 C 1119.262,289.43674 1117.7729,294.13034 1115.7207,300.06181 1113.7261,305.7775 1111.371,311.97515 1108.6553,318.65482 1105.9973,325.11864 1102.8496,331.68266 1099.2122,338.3468 1095.8484,344.85298 1092.3055,350.73235 1088.5833,355.98495 1084.9188,361.02165 1081.0829,364.97068 1077.0755,367.83204 1073.1259,370.47749 1069.2073,371.27938 1065.3198,370.23768 1060.5683,368.96456 1057.0724,365.59727 1054.8321,360.13582 1052.8656,354.51636 1051.6494,347.8247 1051.1834,340.06088 1050.9912,332.13908 1051.4335,323.57705 1052.5104,314.37473 1053.5872,305.17261 1054.9301,296.27318 1056.5392,287.67639 1058.206,278.86391 1059.8864,270.86505 1061.5801,263.67986 1063.5477,256.33683 1065.0523,250.72145 1066.094,246.83377 1067.1357,242.94635 1068.4378,238.0869 1070.0003,232.25539 1071.6206,226.20825 1073.5438,219.89485 1075.7698,213.31517 1078.2116,206.79372 1080.8406,200.43797 1083.6566,194.24785 1086.7464,187.90006 1090.2026,182.34464 1094.0251,177.58159 1097.8475,172.81899 1102.1366,169.33862 1106.8923,167.14041 1111.7057,164.72673 1117.0281,164.30101 1122.8596,165.86326 1128.0428,167.25238 1131.6467,170.64861 1133.6712,176.05194 1135.9693,181.29759 1137.1354,187.74432 1137.1696,195.39213 1137.4774,202.88227 1136.9058,211.06246 1135.4551,219.93278 1134.22,228.86134 1132.582,237.56597 1130.5412,246.04672 1128.7739,254.36968 1126.8275,262.06574 1124.7019,269.13492 1122.7921,276.26225 1121.2875,281.87761 1120.188,285.98101 M 1081.0465,407.4378 C 1080.0627,411.1094 1078.3307,414.11754 1075.8507,416.46226 1073.4284,418.591 1070.5819,420.14311 1067.3113,421.11861 1063.9828,422.31006 1060.583,422.90371 1057.1119,422.89959 1053.6407,422.89539 1050.2853,422.45929 1047.0457,421.59127 1042.2943,420.31808 1038.106,417.80695 1034.481,414.05787 1030.798,410.52472 1029.6799,406.05846 1031.1267,400.65906 1031.9947,397.41944 1033.6399,394.73525 1036.0621,392.60649 1038.7582,390.31965 1041.7705,388.58051 1045.0991,387.38903 1048.4276,386.19757 1051.8563,385.49593 1055.3853,385.28409 1059.1302,385.13016 1062.5145,385.45829 1065.5383,386.26846 1070.5057,387.59948 1074.6939,390.11063 1078.103,393.80186 1081.5699,397.27715 1082.5511,401.82245 1081.0465,407.4378" />
        <path inkscape:connector-curvature="0" style="font-size:medium;font-style:normal;font-variant:normal;font-weight:normal;font-stretch:normal;text-indent:0;text-align:start;text-decoration:none;line-height:normal;letter-spacing:normal;word-spacing:normal;text-transform:none;direction:ltr;block-progression:tb;writing-mode:lr-tb;text-anchor:start;baseline-shift:baseline;color:#000000;fill:#37474f;fill-opacity:1;stroke:none;stroke-width:5;marker:none;visibility:visible;display:inline;overflow:visible;enable-background:accumulate;font-family:Sans;-inkscape-font-specification:Sans" d="M 569.89319,212.98248 C 561.51617,219.56138 550.76816,223.56407 540.22967,223.78955 551.78019,257.21346 561.80277,294.91821 558.41535,329.17704 556.24754,351.10141 550.47835,370.17972 540.52779,383.36142 533.71474,392.38681 525.11633,398.87691 513.771,402.06882 511.14818,406.94079 508.03134,411.52608 504.5291,415.78261 524.23421,413.74021 539.516,404.39589 549.99329,390.51644 561.89314,374.7525 572.2108,352.99394 574.51414,329.69876 578.15137,292.91332 577.75811,249.58461 569.89319,212.98248 z" id="path3799" />
    </g>
</svg>
