<svg xmlns="http://www.w3.org/2000/svg" viewBox="0 0 64 64">
	<path fill="#607d8b" d="M55.489,56.621c1.628-6.781,4.639-17.19,8.511-21.062c-19.714,0-37.671,11.072-37.671,11.072H0l2.228,9.99H55.489z"/>
	<g fill="#d7ccc8">
		<path d="M48.911,25.769H18.734l4.759,5.569L19.715,44.2h5.944c2.597-1.515,12.935-7.2,25.884-9.781L48.911,25.769z M32.6,32.925h-2.973c-1.372,0-2.105-1.088-1.639-2.43c0.465-1.343,1.954-2.431,3.326-2.431H32.6c1.145,0,2.071,1.088,2.071,2.431C34.671,31.836,33.744,32.925,32.6,32.925z M46.321,32.925H38.73c-1.146,0-2.072-1.088-2.072-2.43c0-1.343,0.927-2.431,2.072-2.431h5.905c1.37,0,2.859,1.088,3.324,2.431C48.427,31.837,47.693,32.925,46.321,32.925z"/>
		<polygon points="11.685,44.2 18.343,25.907 16.82,25.354 9.961,44.2"/>
	</g>
	<g fill="#e51c23">
		<polygon points="25.316,16.366 25.316,9.683 15.408,16.366"/>
		<polygon points="13.165,8.265 13.165,14.949 23.072,8.265"/>
	</g>
	<polygon fill="#ffffff" points="23.072,8.265 13.165,14.949 13.165,16.366 15.408,16.366 25.316,9.683 25.316,8.265"/>
	<path fill="#9e9e9e" d="M26.532,24.139c0,0.671-0.544,1.215-1.215,1.215l0,0c-0.671,0-1.215-0.544-1.215-1.215V8.594c0-0.671,0.544-1.215,1.215-1.215l0,0c0.671,0,1.215,0.544,1.215,1.215V24.139z"/>
	<path fill="#bcaaa4" d="M50.025,25.769c0,0.671-0.498,1.215-1.114,1.215H12.253c-0.615,0-1.114-0.544-1.114-1.215l0,0c0-0.672,0.499-1.215,1.114-1.215h36.658C49.527,24.554,50.025,25.097,50.025,25.769L50.025,25.769z"/>
</svg>
