<svg xmlns="http://www.w3.org/2000/svg" viewBox="0 0 64 64">
	<rect fill="#eceff1" width="64" height="64" x="0" y="0" rx="8" ry="8"/>
	<path fill="#607d8b" d="M 8.186 15.187 Q 8.237 14.722 8.54 14.418 L 11.435 11.503 Q 11.739 11.219 12.205 11.169 12.67 11.118 13.014 11.341 L 18.764 15.066 Q 19.108 15.288 19.351 15.754 19.594 16.22 19.574 16.645 L 19.513 17.698 Q 19.493 18.123 19.695 18.629 19.897 19.135 20.201 19.418 L 26.396 25.532 22.509 29.156 16.436 23.184 Q 16.132 22.88 15.626 22.688 15.12 22.496 14.695 22.516 L 13.642 22.556 Q 13.237 22.576 12.771 22.334 12.306 22.091 12.083 21.746 L 8.358 15.997 Q 8.135 15.653 8.186 15.187 z M 9.148 48.267 Q 9.148 47.416 9.735 46.85 L 33.056 23.528 Q 31.761 19.58 33.289 15.683 34.818 11.786 38.543 9.681 40.506 8.567 42.45 8.183 44.393 7.798 46.468 8.223 48.543 8.648 50.446 10.005 L 40.385 15.39 46.013 24.419 55.791 19.499 Q 56.034 22.961 54.465 25.593 52.896 28.225 49.92 29.905 47.592 31.201 44.98 31.423 42.369 31.646 40.081 30.816 L 19.756 51.141 16.901 53.996 Q 16.314 54.583 15.464 54.583 14.614 54.583 14.027 53.996 L 9.735 49.704 Q 9.148 49.117 9.148 48.267 z M 33.016 42.801 40.162 35.31 53.159 47.214 Q 53.483 47.497 53.483 47.912 53.483 48.327 53.199 48.631 L 46.114 55.717 Q 45.81 56 45.395 56 44.98 56 44.697 55.676 z"/>
</svg>
